# generated from PmQm by Jehee Lee
:FULLY-SPECIFIED
:DEGREES
196
root 121.7560509 39.3243055 -61.76469137 0.6851386695 -3.141519493 2.749856294
RightUpLeg -5.241812173 1.688742523 10.221626
RightLeg 35.87991474 1.358950263 -10.98748488
RightFoot 12.64971545 39.23687339 -15.00582633
RightToes 2.32829e-010 -1.59028e-015 9.93923e-017
Spine -6.224798102 -1.022952818 -5.439737597
Spine1 10.74555347 -0.9501929401 -2.762801687
HEad -8.939168264 1.155813541 1.581018609
LeftShoulder1 9.93923e-017 0 1.22299e-017
LeftArm 16.56862281 30.40327029 -78.14285115
LeftForeArm -38.25626847 -20.89606089 4.907431017
LeftHand 0.925915 6.44464 -3.3863
RightShoulder 1.98785e-016 -4.96962e-017 1.55301e-017
RightArm 22.97534893 -47.46687037 88.38872627
RightForeArm -38.47724037 17.9757794 -3.561399452
RightHand 1.02044 -10.2376 -2.25741
LeftUpLeg -16.41786269 -0.8082872978 -0.2157454064
LeftLeg 21.59452498 0 0
LeftFoot -5.499355768 -8.045159457 -3.507439351
LeftToes 8.82235e-011 9.04645e-011 1.87288e-011
197
root 121.6646718 39.45480002 -60.34789718 0.5529817633 -2.659418942 2.267844549
RightUpLeg -10.48428109 2.023057974 9.356699877
RightLeg 36.22810734 2.850052816 -8.719087844
RightFoot 8.648385243 33.34952485 -13.38928472
RightToes 2.32829e-010 -1.59028e-015 9.93923e-017
Spine -6.476834001 -1.996266867 -6.638626845
Spine1 10.81716567 -2.272585215 -1.176215133
HEad -8.783275448 2.163025137 1.510925589
LeftShoulder1 9.93923e-017 0 1.22299e-017
LeftArm 28.24911652 27.30387139 -78.72481338
LeftForeArm -50.97349422 -24.47461644 12.78925711
LeftHand 0.913312 6.34459 -3.16304
RightShoulder 1.98785e-016 -4.96962e-017 1.55301e-017
RightArm 24.95092971 -51.58391205 86.49370238
RightForeArm -40.64563351 18.51131628 -5.096103606
RightHand 0.9969 -10.0451 -2.20697
LeftUpLeg -13.81232462 0.3440217219 0.6234160854
LeftLeg 21.54518668 0 0
LeftFoot -6.637411851 -10.32267164 -3.446528573
LeftToes 8.82235e-011 9.04645e-011 1.87288e-011
198
root 121.5742919 39.52211482 -58.91885822 0.4351238978 -2.043088891 1.882909822
RightUpLeg -15.43572238 1.477432257 8.284485403
RightLeg 34.75681781 3.739991013 -7.00245167
RightFoot 5.080425452 27.74771557 -10.62910741
RightToes 2.32829e-010 -1.59028e-015 9.93923e-017
Spine -6.788023987 -2.989844041 -7.723762149
Spine1 10.93477683 -3.545371936 0.5403474714
HEad -8.843318695 2.986940174 1.472876773
LeftShoulder1 9.93923e-017 0 1.22299e-017
LeftArm 31.88723707 23.92340025 -78.45912758
LeftForeArm -53.63688285 -26.43298621 17.1456967
LeftHand 0.89027 6.12658 -3.34082
RightShoulder 1.98785e-016 -4.96962e-017 1.55301e-017
RightArm 27.40953019 -55.24304649 84.25524685
RightForeArm -43.19013309 19.08278336 -7.056815929
RightHand 1.02418 -10.1508 -2.66158
LeftUpLeg -11.15393293 1.261545511 1.445997823
LeftLeg 21.23976338 0 0
LeftFoot -7.93763614 -12.38912786 -3.258877984
LeftToes 8.82235e-011 9.04645e-011 1.87288e-011
199
root 121.4863911 39.52645185 -57.50461516 0.3576227736 -1.18420464 1.550514481
RightUpLeg -19.78549253 0.00102589165 7.154461923
RightLeg 31.2836357 4.316145236 -5.534860882
RightFoot 3.109109599 22.7677411 -7.475983474
RightToes 2.32829e-010 -1.59028e-015 9.93923e-017
Spine -6.845519161 -4.022498645 -8.720262644
Spine1 10.81351879 -4.81636505 2.402248215
HEad -8.700458735 3.742787612 1.490087455
LeftShoulder1 9.93923e-017 0 1.22299e-017
LeftArm 30.01286693 20.50987836 -77.73300493
LeftForeArm -49.90317989 -28.37589464 18.07386607
LeftHand 0.874162 5.96507 -3.53657
RightShoulder 1.98785e-016 -4.96962e-017 1.55301e-017
RightArm 28.9357223 -58.30468862 81.8964138
RightForeArm -44.13277519 19.34946355 -8.402974779
RightHand 1.06596 -10.3388 -3.23031
LeftUpLeg -8.656807469 1.561733487 2.192352502
LeftLeg 20.99123604 0 0
LeftFoot -9.683261569 -13.85166705 -2.893341829
LeftToes 8.82235e-011 9.04645e-011 1.87288e-011
200
root 121.4006247 39.4131 -56.10032096 0.3696472237 -0.5240382379 1.460661443
RightUpLeg -23.23383379 -1.458613115 5.939983712
RightLeg 25.88086148 4.492209314 -4.389919542
RightFoot 2.770447279 18.23868322 -4.271685546
RightToes 2.32829e-010 -1.59028e-015 9.93923e-017
Spine -6.99225 -4.80394 -9.49489
Spine1 10.8103 -5.72047 3.70045
HEad -8.50494 4.3499 1.50706
LeftShoulder1 9.93923e-017 0 1.22299e-017
LeftArm 29.324 17.2202 -77.0933
LeftForeArm -48.1612 -29.8036 18.6995
LeftHand 0.872868 5.99207 -3.07255
RightShoulder 1.98785e-016 -4.96962e-017 1.55301e-017
RightArm 28.776 -60.6454 79.5323
RightForeArm -43.3166 19.3197 -8.73957
RightHand 1.06334 -10.2749 -3.3763
LeftUpLeg -6.724126111 1.285493889 2.687475919
LeftLeg 21.70493906 0 0
LeftFoot -11.9948256 -14.18645643 -1.995907215
LeftToes 8.82235e-011 9.04645e-011 1.87288e-011
201
root 121.3142706 39.2327 -54.6684797 0.5078951519 -0.2938420293 1.46917523
RightUpLeg -25.47211932 -1.697802565 4.580723597
RightLeg 18.43685433 3.779683594 -3.364730212
RightFoot 3.165548629 14.02329701 -1.393261713
RightToes 2.32829e-010 -1.59028e-015 9.93923e-017
Spine -7.65058 -5.2852 -9.75784
Spine1 11.3122 -6.21112 4.32768
HEad -8.52028 4.71785 1.51934
LeftShoulder1 9.93923e-017 0 1.22299e-017
LeftArm 29.4603 14.1658 -76.6241
LeftForeArm -47.981 -30.6495 19.0576
LeftHand 0.885736 6.13897 -2.34913
RightShoulder 1.98785e-016 -4.96962e-017 1.55301e-017
RightArm 27.6383 -62.1936 77.3537
RightForeArm -41.7608 19.1113 -8.25781
RightHand 1.03651 -10.1069 -3.19424
LeftUpLeg -5.001157301 0.8375821155 3.065967108
LeftLeg 22.7870351 0 0
LeftFoot -14.37117644 -13.78779531 -0.8375561576
LeftToes 8.82235e-011 9.04645e-011 1.87288e-011
202
root 121.2262542 39.0802 -53.18161389 0.7345218136 -0.04984157848 1.324330583
RightUpLeg -26.28745816 0.4469919355 2.440831413
RightLeg 9.013392705 1.283079786 -1.746908553
RightFoot 3.870415797 10.29941174 0.5781107376
RightToes 2.32829e-010 -1.59028e-015 9.93923e-017
Spine -8.6081 -5.6719 -9.68894
Spine1 12.1741 -6.65675 4.99614
HEad -8.60171 4.91217 1.54686
LeftShoulder1 9.93923e-017 0 1.22299e-017
LeftArm 29.7915 11.8395 -76.3575
LeftForeArm -47.9949 -30.8542 19.1422
LeftHand 0.888198 6.19945 -2.12654
RightShoulder 1.98785e-016 -4.96962e-017 1.55301e-017
RightArm 26.0322 -63.0557 75.5544
RightForeArm -39.6685 18.7275 -7.09118
RightHand 1.04538 -10.2148 -3.06739
LeftUpLeg -2.92227435 0.5956207387 3.628081271
LeftLeg 23.04334811 0 0
LeftFoot -16.05474075 -13.76862025 -0.6377866295
LeftToes 8.82235e-011 9.04645e-011 1.87288e-011
203
root 121.1333379 38.8762 -51.55561445 0.9438062118 0.3663743875 1.384009688
RightUpLeg -26.94170766 3.283281005 -0.2607465078
RightLeg 0.9607143484 -1.277212733 -0.1507740675
RightFoot 3.309727462 7.195189973 2.183480709
RightToes 2.32829e-010 -1.59028e-015 9.93923e-017
Spine -9.49751 -6.05755 -10.1279
Spine1 12.8917 -7.15563 5.92882
HEad -8.55562 5.05889 1.51876
LeftShoulder1 9.93923e-017 0 1.22299e-017
LeftArm 29.9484 10.6982 -76.4209
LeftForeArm -47.6176 -30.435 18.9857
LeftHand 0.867906 6.04462 -1.99351
RightShoulder 1.98785e-016 -4.96962e-017 1.55301e-017
RightArm 23.3053 -63.3984 74.2572
RightForeArm -36.4712 18.0456 -5.27696
RightHand 1.09058 -10.5989 -3.03782
LeftUpLeg -0.5736272792 0.6817310947 4.221397919
LeftLeg 23.18146479 0 0
LeftFoot -16.97038139 -14.75421414 -1.924795441
LeftToes 8.82235e-011 9.04645e-011 1.87288e-011
204
root 121.0310401 38.601 -49.76956166 1.127214608 0.5450087915 1.701092356
RightUpLeg -29.15634177 2.999784526 -1.397294582
RightLeg -0.1961928257 -0.3273035654 -0.1616551002
RightFoot 0.1727513173 4.781511197 4.244472084
RightToes 2.32829e-010 -1.59028e-015 9.93923e-017
Spine -10.2439 -6.31079 -10.7884
Spine1 13.3337 -7.44763 6.66218
HEad -8.54849 5.23696 1.35208
LeftShoulder1 9.93923e-017 0 1.22299e-017
LeftArm 29.7653 10.9109 -76.8662
LeftForeArm -47.4502 -29.5983 18.6497
LeftHand 0.826019 5.78296 -1.20192
RightShoulder 1.98785e-016 -4.96962e-017 1.55301e-017
RightArm 18.8351 -63.2616 73.5959
RightForeArm -32.1964 17.001 -3.12863
RightHand 1.1245 -10.9169 -2.9294
LeftUpLeg 1.883059322 0.8603917505 4.755196121
LeftLeg 23.75598818 0 0
LeftFoot -16.85147858 -16.13982298 -3.704998176
LeftToes 8.82235e-011 9.04645e-011 1.87288e-011
205
root 120.9034982 38.4189 -47.92423273 1.322553453 0.3428235227 1.357733803
RightUpLeg -29.92541541 3.071761083 -1.319623397
RightLeg 1.858433306 0 0
RightFoot -0.7161139996 3.011996451 5.129010619
RightToes 2.32829e-010 -1.59028e-015 9.93923e-017
Spine -10.7843 -6.26734 -10.1272
Spine1 13.8011 -7.57906 7.00812
HEad -8.70347 5.48074 1.07417
LeftShoulder1 9.93923e-017 0 1.22299e-017
LeftArm 29.2754 12.6124 -77.5387
LeftForeArm -48.1855 -28.5891 18.2097
LeftHand 0.801969 5.68333 -0.307163
RightShoulder 1.98785e-016 -4.96962e-017 1.55301e-017
RightArm 13.7765 -62.7281 73.6493
RightForeArm -28.2108 15.8837 -1.35653
RightHand 1.12705 -10.9789 -2.80964
LeftUpLeg 4.466302081 0.757343839 5.846049148
LeftLeg 24.00946071 0 0
LeftFoot -15.12070695 -16.95008781 -5.621316762
LeftToes 8.82235e-011 9.04645e-011 1.87288e-011
206
root 120.7391124 38.2878 -45.9541226 1.427422248 0.4968343697 0.3035006724
RightUpLeg -30.51830932 3.808167967 -0.5274697345
RightLeg 7.509256482 0 0
RightFoot 1.131372017 1.739038606 3.040307086
RightToes 2.32829e-010 -1.59028e-015 9.93923e-017
Spine -11.0823 -6.32863 -8.25998
Spine1 14.0797 -7.86548 7.06816
HEad -8.76553 5.69424 0.709591
LeftShoulder1 9.93923e-017 0 1.22299e-017
LeftArm 29.0949 15.9192 -78.3907
LeftForeArm -49.8271 -27.3878 17.7096
LeftHand 0.82302 5.83404 -0.371178
RightShoulder 1.98785e-016 -4.96962e-017 1.55301e-017
RightArm 10.2148 -62.1444 74.3148
RightForeArm -26.0691 15.2511 -0.567928
RightHand 1.12095 -10.8908 -2.91922
LeftUpLeg 6.89367206 -0.2097068935 7.675700857
LeftLeg 24.45878731 0 0
LeftFoot -11.65402492 -16.88497456 -8.960804965
LeftToes 8.82235e-011 9.04645e-011 1.87288e-011
